<?xml version="1.0" encoding="utf-8"?>
<!-- Generator: Adobe Illustrator 23.1.1, SVG Export Plug-In . SVG Version: 6.00 Build 0)  -->
<svg version="1.1" id="Layer_1" xmlns="http://www.w3.org/2000/svg" xmlns:xlink="http://www.w3.org/1999/xlink" x="0px" y="0px"
	 viewBox="0 0 22 22" style="enable-background:new 0 0 22 22;" xml:space="preserve">
<style type="text/css">
	.st0{fill:#4F4F50;}
</style>
<path class="st0" d="M2.3,16.4h8.1l6.9,5.6v-5.6h2.5c1.3,0,2.3-1,2.3-2.3V2.3C22,1,21,0,19.7,0H2.3C1,0,0,1,0,2.3V14
	C0,15.3,1,16.4,2.3,16.4z M16.3,8.7c-0.9-0.3-1.2-0.8-1.2-1.3c0-0.8,0.7-1.4,1.7-1.4c0.5,0,0.9,0.1,1.2,0.2l-0.2,0.9
	c-0.2-0.1-0.6-0.2-0.9-0.2c-0.3,0-0.5,0.1-0.5,0.4c0,0.2,0.2,0.3,0.7,0.5c0.8,0.3,1.2,0.7,1.2,1.3c0,0.8-0.6,1.4-1.9,1.4
	c-0.6,0-1.1-0.1-1.4-0.3l0.2-1c0.2,0.1,0.8,0.3,1.1,0.3c0.4,0,0.6-0.1,0.6-0.4C17,9,16.8,8.9,16.3,8.7z M8.8,6.1l0.1,0.6h0
	C9.1,6.4,9.5,6,10.2,6c0.6,0,1,0.3,1.2,0.7h0c0.2-0.2,0.4-0.4,0.6-0.5C12.2,6.1,12.4,6,12.8,6c0.8,0,1.4,0.6,1.4,1.9v2.5h-1.3V8.1
	c0-0.6-0.2-1-0.6-1c-0.3,0-0.5,0.2-0.6,0.5c0,0.1-0.1,0.2-0.1,0.3v2.5h-1.3V8c0-0.5-0.2-0.9-0.6-0.9c-0.3,0-0.5,0.3-0.6,0.5
	C9,7.7,9,7.8,9,7.9v2.5H7.7V7.5c0-0.5,0-1,0-1.4L8.8,6.1L8.8,6.1z M5,8.7C4.1,8.4,3.8,7.9,3.8,7.4C3.8,6.6,4.5,6,5.5,6
	C6,6,6.5,6.1,6.7,6.3L6.5,7.2C6.3,7.1,5.9,6.9,5.6,6.9c-0.3,0-0.5,0.1-0.5,0.4c0,0.2,0.2,0.3,0.7,0.5c0.8,0.3,1.2,0.7,1.2,1.3
	c0,0.8-0.6,1.4-1.9,1.4c-0.6,0-1.1-0.1-1.4-0.3l0.2-1c0.2,0.1,0.8,0.3,1.1,0.3c0.4,0,0.6-0.1,0.6-0.4C5.6,9,5.5,8.9,5,8.7z"/>
</svg>
