<?xml version="1.0" encoding="utf-8"?>
<!-- Generator: Adobe Illustrator 23.1.1, SVG Export Plug-In . SVG Version: 6.00 Build 0)  -->
<svg version="1.1" id="Layer_1" xmlns="http://www.w3.org/2000/svg" xmlns:xlink="http://www.w3.org/1999/xlink" x="0px" y="0px"
	 viewBox="0 0 22 22" style="enable-background:new 0 0 22 22;" xml:space="preserve">
<style type="text/css">
	.st0{fill:#4F4F50;}
</style>
<g>
	<path class="st0" d="M21.7,17.5H0.3c-0.2,0-0.3-0.1-0.3-0.3V4.8c0-0.2,0.1-0.3,0.3-0.3h21.4c0.2,0,0.3,0.1,0.3,0.3v12.3
		C22,17.3,21.9,17.5,21.7,17.5z M0.6,16.9h20.8V5.1H0.6V16.9z"/>
	<path class="st0" d="M21.7,7.7c-1.6,0-2.8-1.3-2.8-2.8c0-0.2,0.1-0.3,0.3-0.3c0.2,0,0.3,0.1,0.3,0.3c0,1.2,1,2.2,2.2,2.2
		c0.2,0,0.3,0.1,0.3,0.3C22,7.5,21.9,7.7,21.7,7.7z"/>
	<path class="st0" d="M19.2,17.5c-0.2,0-0.3-0.1-0.3-0.3c0-1.6,1.3-2.8,2.8-2.8c0.2,0,0.3,0.1,0.3,0.3s-0.1,0.3-0.3,0.3
		c-1.2,0-2.2,1-2.2,2.2C19.5,17.3,19.3,17.5,19.2,17.5z"/>
	<path class="st0" d="M0.3,7.7C0.1,7.7,0,7.5,0,7.4c0-0.2,0.1-0.3,0.3-0.3c1.2,0,2.2-1,2.2-2.2c0-0.2,0.1-0.3,0.3-0.3
		c0.2,0,0.3,0.1,0.3,0.3C3.1,6.4,1.9,7.7,0.3,7.7z"/>
	<path class="st0" d="M2.8,17.5c-0.2,0-0.3-0.1-0.3-0.3c0-1.2-1-2.2-2.2-2.2c-0.2,0-0.3-0.1-0.3-0.3s0.1-0.3,0.3-0.3
		c1.6,0,2.8,1.3,2.8,2.8C3.1,17.3,3,17.5,2.8,17.5z"/>
	<g>
		<g>
			<path class="st0" d="M11.1,14.1c-0.8,0-1.8-0.5-2.3-0.9c-0.1-0.1-0.2-0.3,0-0.4s0.3-0.2,0.4,0c0.4,0.3,1.3,0.7,1.9,0.7
				c0.6,0,1.5-0.3,1.5-1c0-0.6-0.6-0.9-1.4-1.2L11,11.3c-0.6-0.2-2-0.7-2-1.8c0-1.1,0.8-1.8,2-1.8c1.2,0,2,0.6,2,0.7
				c0.1,0.1,0.1,0.3,0,0.4c-0.1,0.1-0.3,0.1-0.4,0c0,0-0.7-0.5-1.7-0.5c-0.9,0-1.4,0.4-1.4,1.2c0,0.6,0.8,0.9,1.6,1.2l0.2,0.1
				c0.7,0.2,1.9,0.6,1.9,1.7C13.3,13.6,12,14.1,11.1,14.1z"/>
			<path class="st0" d="M11,15c-0.2,0-0.3-0.1-0.3-0.3V7.3C10.7,7.1,10.9,7,11,7s0.3,0.1,0.3,0.3v7.4C11.3,14.9,11.2,15,11,15z"/>
		</g>
	</g>
</g>
</svg>
